<svg width="178" height="44" viewBox="0 0 178 44" fill="none" xmlns="http://www.w3.org/2000/svg">
<g clip-path="url(#clip0_292_988)">
<path d="M51.6122 31.1007L51.538 31.154C46.4078 35.1499 40.428 37.906 34.0631 39.2083C23.7501 41.4746 14.1267 40.1233 8.98082 35.6865C7.86703 34.7726 6.95028 33.6411 6.28635 32.3607C5.62237 31.0803 5.22517 29.6779 5.11876 28.2386C4.49275 20.7483 10.1055 12.9706 20.1745 7.45916H20.27L20.1533 7.17188H20.0578C8.24874 11.9279 -0.0377969 20.8121 0.556387 29.2707C0.677027 30.9642 1.13331 32.6166 1.89848 34.1311C2.66365 35.6456 3.72236 36.9918 5.01263 38.0911C10.4981 42.879 20.2063 44.3686 30.9969 42.0597C38.7529 40.5137 45.9252 36.829 51.7078 31.42L51.8035 31.3136L51.6122 31.1007Z" fill="#1D1D1D"/>
<path d="M59.4534 10.672C57.4061 6.07568 52.8966 2.95819 46.7746 1.8942C36.8753 0.149298 24.9602 4.41588 19.0291 11.3423L18.9548 11.4274L19.1458 11.6828L19.2413 11.6083C23.7888 8.03993 29.1874 5.7255 34.9018 4.89464C43.5916 3.56465 50.8911 5.7458 54.4031 10.7465C57.9151 15.7472 56.8543 24.9719 52.3662 30.3982L52.281 30.5046L52.5042 30.7706L52.5998 30.6855C59.4326 24.1633 62.7214 17.9922 59.4534 10.672Z" fill="#1D1D1D"/>
<path d="M22.9651 23.8443H16.408L15.7078 27.6214H23.0288L22.4452 30.7069H11.4531L14.5407 14.311H25.0659L24.4611 17.4604H17.6176L16.9916 20.8226H23.5381L22.9651 23.8443Z" fill="#1D1D1D"/>
<path d="M29.6176 17.4603H25.6069L26.2117 14.3535H40.1216C39.2517 14.5821 38.4667 15.0589 37.8617 15.726C37.3869 16.2008 37.0589 16.8031 36.9173 17.4603H33.2569L30.7847 30.7388H27.1454L29.6176 17.4603Z" fill="#1D1D1D"/>
<path d="M37.0449 26.7276C38.3799 27.5033 39.8945 27.9142 41.4375 27.9192C42.7744 27.9192 44.1113 27.3553 44.1113 26.0679C44.1113 25.1954 43.3579 24.6102 41.7027 23.8761C39.8035 23.0568 37.8406 21.7481 37.8406 19.3968C37.8406 16.0133 41.0237 14.0768 44.6417 14.0768C46.1406 14.0139 47.6316 14.3246 48.9815 14.9812L47.7929 17.9923C46.7181 17.4482 45.5274 17.1743 44.3235 17.1943C42.5834 17.1943 41.724 17.9923 41.724 18.7796C41.724 19.8436 42.9654 20.3862 44.3765 21.0353C46.5834 22.0141 48.037 23.3228 48.037 25.4933C48.037 29.2385 44.7585 31.0686 40.9494 31.0686C39.115 31.1271 37.3026 30.6543 35.7292 29.7067L37.0449 26.7276Z" fill="#1D1D1D"/>
<path d="M58.5833 34.6012C58.3767 34.8149 58.1294 34.9847 57.8562 35.1007C57.5825 35.2167 57.289 35.2765 56.9922 35.2765C56.6954 35.2765 56.4014 35.2167 56.1282 35.1007C55.8545 34.9847 55.6072 34.8149 55.4005 34.6012C55.1856 34.3961 55.0164 34.1481 54.9031 33.8732C54.7894 33.5983 54.735 33.3026 54.7427 33.0052C54.7399 32.7086 54.7971 32.4144 54.9097 32.1403C55.023 31.8661 55.19 31.6175 55.4005 31.4093C55.8254 30.9908 56.3964 30.7563 56.9922 30.7563C57.5874 30.7563 58.159 30.9908 58.5833 31.4093C58.7927 31.6188 58.9587 31.8676 59.0719 32.1414C59.1852 32.4153 59.2434 32.7088 59.2434 33.0052C59.2434 33.3017 59.1852 33.5953 59.0719 33.8691C58.9587 34.143 58.7927 34.3918 58.5833 34.6012ZM55.6341 31.6327C55.45 31.8101 55.3044 32.0234 55.2054 32.2595C55.1071 32.4955 55.0581 32.7494 55.0609 33.0052C55.0576 33.2619 55.1054 33.5165 55.2021 33.7541C55.2989 33.9917 55.4418 34.2074 55.6231 34.3885C55.8001 34.5729 56.0128 34.7191 56.2486 34.8179C56.4838 34.9167 56.7366 34.9661 56.9922 34.963C57.2472 34.968 57.5012 34.9195 57.7369 34.8206C57.9727 34.7216 58.1849 34.5745 58.3607 34.3885C58.7202 34.0205 58.9219 33.5258 58.9219 33.0106C58.9219 32.4954 58.7202 32.0007 58.3607 31.6327C58.1832 31.451 57.9711 31.3066 57.7369 31.208C57.5028 31.1094 57.2511 31.0587 56.9972 31.0587C56.7432 31.0587 56.4921 31.1094 56.2579 31.208C56.0238 31.3066 55.8117 31.451 55.6341 31.6327ZM56.9493 31.7604C57.1791 31.7518 57.4083 31.7805 57.6287 31.8455C57.7512 31.8952 57.8546 31.9831 57.9233 32.0961C57.992 32.2092 58.0227 32.3414 58.0106 32.4733C58.0178 32.5694 57.9991 32.6657 57.9562 32.7519C57.9134 32.8381 57.8474 32.911 57.7666 32.9627C57.6589 33.0255 57.5402 33.0654 57.4165 33.0798C57.499 33.0888 57.5781 33.1152 57.6496 33.1574C57.721 33.1996 57.7826 33.2566 57.8304 33.3245C57.9139 33.435 57.9623 33.5687 57.9683 33.7075V33.8883C57.9623 33.9485 57.9623 34.0091 57.9683 34.0692C57.9584 34.1148 57.9584 34.162 57.9683 34.2076H57.5649V33.8778C57.5792 33.7715 57.5655 33.6632 57.5242 33.5642C57.483 33.4651 57.4165 33.3787 57.3313 33.3138C57.178 33.2472 57.0104 33.2181 56.8433 33.2287H56.5042V34.2076H56.0689V31.7604H56.9493ZM57.427 32.1541C57.2604 32.0795 57.0785 32.0467 56.8966 32.0583H56.525V32.9521H56.918C57.0549 32.9734 57.1945 32.9734 57.3313 32.9521C57.4099 32.9245 57.477 32.8723 57.5226 32.8032C57.5688 32.7341 57.5907 32.6519 57.5863 32.569C57.6078 32.4919 57.6039 32.4099 57.5754 32.3351C57.5462 32.2604 57.4946 32.1969 57.427 32.1541Z" fill="#1D1D1D"/>
<path d="M156.197 13.6076C157.896 13.6076 159.274 12.2218 159.274 10.5123C159.274 8.8028 157.896 7.41699 156.197 7.41699C154.498 7.41699 153.12 8.8028 153.12 10.5123C153.12 12.2218 154.498 13.6076 156.197 13.6076Z" fill="#1D1D1D"/>
<path fill-rule="evenodd" clip-rule="evenodd" d="M78.0445 30.5041C78.0445 32.5652 77.4537 33.8732 76.2319 34.5471H85.5308C83.2059 33.8732 82.6151 32.5652 82.6151 30.5041V25.0342H86.4497C92.9901 25.0342 97.5607 22.6956 97.5607 16.3536C97.5607 10.3288 93.5419 8.22803 86.4893 8.22803H76.2319C77.4537 8.90179 78.0445 10.2099 78.0445 12.271V30.5041ZM86.4893 22.6559H82.6151V10.5666H86.4893C90.7444 10.5666 92.6356 12.1124 92.6356 16.631C92.6356 21.3083 90.7444 22.6559 86.4893 22.6559Z" fill="#1D1D1D"/>
<path d="M98.377 34.547C99.4806 33.9921 100.071 32.6444 100.071 30.5041V19.7227C100.071 17.5823 99.4806 16.2347 98.377 15.6798H104.287V19.8105H104.366C104.705 17.8655 106.032 15.2834 108.779 15.2834C109.502 15.2834 110.042 15.4796 110.522 15.6537C110.905 15.7927 111.248 15.9176 111.615 15.9176C112.285 15.9176 112.837 15.5608 113.27 15.2041L111.615 20.8909C110.844 19.7985 109.232 18.8881 108.129 18.8881C105.884 18.8881 104.287 21.0308 104.287 23.845V30.5041C104.287 32.5652 104.996 33.8732 107.045 34.547H98.377Z" fill="#1D1D1D"/>
<path fill-rule="evenodd" clip-rule="evenodd" d="M119.072 34.9433C115.92 34.9433 113.556 33.0407 113.556 29.7111C113.556 26.3023 115.92 24.3601 120.372 23.3295L123.761 22.4972C125.1 22.1801 125.691 21.7044 125.691 20.5946C125.691 18.692 124.667 17.4633 122.224 17.4633C119.585 17.4633 117.426 18.8879 115.254 22.0612L114.699 15.2832C115.132 16.0363 115.723 16.3534 116.472 16.3534C117.023 16.3534 117.737 16.1825 118.596 15.9773C119.885 15.669 121.498 15.2832 123.367 15.2832C127.701 15.2832 129.868 17.3047 129.868 21.4666V30.5039C129.868 32.1257 130.48 33.1821 131.582 33.1821C132.814 33.1821 133.479 32.3239 134.364 31.1821L134.466 31.0498L134.544 30.9492C134.628 30.8423 134.714 30.7333 134.802 30.6228L139.018 25.5492L133.58 18.256C133.029 17.5029 132.201 16.5912 130.783 15.6796H139.254C138.072 16.3534 137.836 17.5029 138.663 18.6127L141.815 22.8143L144.573 19.4055C145.794 17.8596 145.676 16.512 144.258 15.6796H151.35C149.402 16.9609 148.665 17.8839 147.48 19.3684C147.419 19.4453 147.356 19.5237 147.292 19.6036L143.155 24.7565L148.632 31.9705C149.262 32.8028 150.01 33.6352 151.429 34.5469H142.879C144.061 33.873 144.219 32.6443 143.47 31.6137L140.357 27.4122L137.717 30.7021C136.496 32.2875 136.536 33.7145 137.954 34.5469H125.691L125.686 30.1644H125.464C124.415 33.6448 121.718 34.9433 119.072 34.9433ZM117.732 28.8788C117.732 31.1381 119.23 32.0101 121.003 32.0101C123.918 32.0101 125.691 29.7111 125.691 26.8969V23.0521C125.466 23.8083 124.416 24.1318 123.43 24.4352L123.288 24.479L120.884 25.2321C118.757 25.8664 117.732 27.0158 117.732 28.8788Z" fill="#1D1D1D"/>
<path d="M154.54 30.504C154.54 32.6444 153.949 33.9921 152.846 34.5469H160.45C159.347 33.9921 158.756 32.6444 158.756 30.504V15.6797H152.846C153.949 16.2346 154.54 17.5822 154.54 19.7227V30.504Z" fill="#1D1D1D"/>
<path d="M169.752 32.8426C166.206 32.8426 163.37 30.7815 162.109 26.8574V34.9434C162.7 34.1903 163.252 33.8732 164.079 33.8732C164.643 33.8732 165.26 34.0524 165.989 34.2641C167.042 34.5698 168.329 34.9434 170.028 34.9434C174.401 34.9434 177.553 32.4463 177.553 28.7204C177.553 25.9458 175.78 24.0036 172.471 23.2108L168.925 22.3388C166.797 21.8235 165.891 21.1893 165.891 19.802C165.891 18.2562 167.034 17.3445 169.28 17.3445C172.353 17.3445 174.914 19.0489 176.096 21.9821V15.2041C175.623 15.9572 174.953 16.1554 174.323 16.1554C173.845 16.1554 173.308 16.0192 172.67 15.857C171.73 15.6182 170.568 15.323 169.043 15.323C164.945 15.323 162.227 17.4634 162.227 20.793C162.227 23.7261 164.275 25.4701 167.664 26.3025L171.092 27.1349C172.786 27.5709 173.692 28.2447 173.692 29.7509C173.692 31.5743 172.432 32.8426 169.752 32.8426Z" fill="#1D1D1D"/>
</g>
<defs>
<clipPath id="clip0_292_988">
<rect width="177" height="43" fill="white" transform="translate(0.5 0.5)"/>
</clipPath>
</defs>
</svg>
